<svg id="f1856d9a-18df-4661-b987-cac6b52350f2" data-name="Слой 1" xmlns="http://www.w3.org/2000/svg" xmlns:xlink="http://www.w3.org/1999/xlink" viewBox="0 0 1227 886.92"><defs><style>.b7cce325-6ce2-4ad9-a029-752d2cc01477{fill:#ff7bac;}.b7cce325-6ce2-4ad9-a029-752d2cc01477,.b9fd241f-3546-48fe-b02b-52fe7012f06b,.bf54c405-2d57-44d8-8efb-4373d0794c74{stroke:#000;stroke-miterlimit:10;}.bf54c405-2d57-44d8-8efb-4373d0794c74{fill:#fff;}.b9fd241f-3546-48fe-b02b-52fe7012f06b{fill:none;}</style></defs><image width="710" height="444" transform="translate(0 85.05) scale(1.73)" xlink:href="../Desktop/thumb2-zero-two-manga-anime-characters-pink-hair-darling-in-the-franxx.jpg"/><path class="b7cce325-6ce2-4ad9-a029-752d2cc01477" d="M404.5-.5a296.21,296.21,0,0,0-38,42c-13,18-37.73,57.28-46,111-2.69,17.48.21,58,6,139,1,13.41,2,26.69,3,47,0,0,2.12,42.92,2,80-.23,68.41-11.88,78.06-16,156-2,37.16.36,65.44,5,122,3.89,47.43,7.72,66,22,78,24.42,20.5,64.68,9.36,78,6,155.51-39.17,541.1,0,650,15,0,0,130.55,18,138-9,1-3.49.31-11.71-2-19a53.84,53.84,0,0,0-14-22c-2.34-2.36-12.89-19.91-34-55,0,0-25.66-42.67-50-90-7-13.66-32.41-64.06-76-193-32.93-97.4-51.53-152.43-72-225-5.56-19.7-15.9-57.15-38-104-9.38-19.87-25.83-54.75-45-79-57-72.12-161.4-79.8-205-83C557-92,457-47.6,404.5-.5Z" transform="translate(-88 85.05)"/><path class="bf54c405-2d57-44d8-8efb-4373d0794c74" d="M617.5,632.5c6.12,9.91,11.32,17.67,15,23,4.12,6,6.45,9.07,7,14,.38,3.38.12,9.42-6,18-9,12.59-19.3,14.78-39,26-7,4-17.68,11.67-39,27a244.93,244.93,0,0,0-27,22c-3.82,3.62-6.89,6.77-9,9h572.67l-49.67-12a619.18,619.18,0,0,1-82-34c-28.79-14.47-42.86-24.47-49-29-9.54-7-23.85-17.73-39-35-5.39-6.14-24.5-28.65-39-64-9.62-23.47-13.63-43.86-17-61-2.9-14.76-4.79-28.86-10.66-54.82-2.12-9.36-4-17-5.34-22.18a398.64,398.64,0,0,1-183,173Z" transform="translate(-88 85.05)"/><path class="bf54c405-2d57-44d8-8efb-4373d0794c74" d="M607.5,635.5a85.12,85.12,0,0,1-23,7c-8.21,1.23-18.92,2.84-23-2-6.37-7.55,6.09-27.68,10-34,10.78-17.42,36.93-51.26,105-94,28-19.41,52.18-33.9,70-44,28-15.9,39.77-20.53,45-16,6.5,5.62.28,23-4,35-5.09,14.23-12.28,27-26,45-12.85,16.9-23.22,30.55-41,46-9.54,8.3-35.84,29.81-71,43C631.58,628.22,626.82,627,607.5,635.5Z" transform="translate(-88 85.05)"/><path class="bf54c405-2d57-44d8-8efb-4373d0794c74" d="M397.5,410.5c6.34,22.53,9.51,33.8,13,44,11.21,32.77,6.77,29.73,14,46a189.94,189.94,0,0,0,23,38c9.24,11.94,18.08,20.42,27,29,3.64,3.5,3.66,3.37,20,18,24.84,22.23,30.7,27.81,33,30,5.08,4.86,12.38,12,21,21a15.14,15.14,0,0,0,7,7c5.19,2.29,10.59.31,14-1,20.33-7.81,30.5-11.71,31-12,45.18-26.39,40.6-23,48-28,14.89-10.14,32.57-22.3,53-42a357.35,357.35,0,0,0,40-46c11-14.68,22.58-30.25,32-50,13.34-28,15.69-50.52,20-92a587.65,587.65,0,0,0,2-99c-3.21-49.13-4.89-74.85-20-105a179.06,179.06,0,0,0-42-54,277.88,277.88,0,0,0-71-25c-22.26-4.54-83.71-16.24-149,12a213.29,213.29,0,0,0-51,31c-31.75,26.35-47,55.4-54,69-12.8,25-16.93,44.15-24,77-1.56,7.26-5.57,26.87-3,48,1,8.22,1.7,13.95,5,21,4.23,9,8.24,10.64,10,19,.94,4.46.63,8.64,0,17-.54,7.29-1.42,10-1,16A52.56,52.56,0,0,0,397.5,410.5Z" transform="translate(-88 85.05)"/><path class="bf54c405-2d57-44d8-8efb-4373d0794c74" d="M770.5,272.5c.89-5.53,3.26-11.69,8-24,4.36-11.31,6.47-14.61,10-17,5.67-3.84,12.31-3.52,16-3a61,61,0,0,1,10,9c2.93,3.29,10.46,12,13,24,1.63,7.7.08,14.47-3,28-1,4.57-3,12.45-10,32-5.17,14.47-4.52,11.33-11,29-5,13.53-8.37,23.7-17,35-5.06,6.63-7.61,8-10,8-7,0-13.91-12-15-23-.91-9.17,2.79-12,7-27a131.94,131.94,0,0,0,5-36C773.28,288.66,768.16,287.13,770.5,272.5Z" transform="translate(-88 85.05)"/><path class="bf54c405-2d57-44d8-8efb-4373d0794c74" d="M571.5,325.5c-.15,1.35-1.37,14.57,9,24,9.58,8.71,21.39,7.23,23,7,4.91.39,22.69,1.2,39-11a56.73,56.73,0,0,0,18-23,75.17,75.17,0,0,0,11-36q-2-5.5-4-11a38.13,38.13,0,0,0-13-3c-5-.23-9.93.59-25,7-9.84,4.18-16,7.35-27,13-10.21,5.26-15.06,8.08-20,13a39.58,39.58,0,0,0-8,11A38.13,38.13,0,0,0,571.5,325.5Z" transform="translate(-88 85.05)"/><path class="bf54c405-2d57-44d8-8efb-4373d0794c74" d="M418.5,426.5c-6.24-1.68-14.69-4-20-12-4.77-7.22-4.33-15-4-18a26.83,26.83,0,0,1,8-10c4.61-3.49,9.11-4.41,13.82-5.32a54.94,54.94,0,0,1,21.18.32,58.18,58.18,0,0,1,18,7c1,.56,8,4.86,9,13a17.25,17.25,0,0,1-2,10c-1.85,3.52-4.35,5.36-8,8a43.3,43.3,0,0,1-13,7A40.4,40.4,0,0,1,418.5,426.5Z" transform="translate(-88 85.05)"/><path class="b9fd241f-3546-48fe-b02b-52fe7012f06b" d="M464.5,435.5a83.66,83.66,0,0,1,0,28,81.74,81.74,0,0,1-3,12c2.46,1.29,4.52,2.3,6,3,5.66,2.7,6.22,2.61,8,4,2.51,2,2.82,3.26,5,4a8.52,8.52,0,0,0,5,0" transform="translate(-88 85.05)"/><path class="b9fd241f-3546-48fe-b02b-52fe7012f06b" d="M522.5,557.5a10.45,10.45,0,0,1-4-4c-.32-.58-2.36-4.25-1-6,1.7-2.19,7.61.08,10,1,3.4,1.3,6.07,2.33,7,5a6.45,6.45,0,0,1-1,6,6.27,6.27,0,0,1-3,2" transform="translate(-88 85.05)"/><path class="b9fd241f-3546-48fe-b02b-52fe7012f06b" d="M512.5,293.5v11c2.24-2.41,5.27-5.52,9-9,2.69-2.5,6.9-6.27,13-11a368.42,368.42,0,0,1,34-23c13.19-8,8.72-4.51,34-19,0,0,16.5-9.46,30-14,3.5-1.18,7-2,7-2,2.07-.49,3.81-.8,5-1a54.16,54.16,0,0,0-8,0s-2.91.21-6,.79c-4.93.9-14,3.92-25,9.21-7.3,3.25-17.32,7.9-29,14-12.94,6.75-23.45,12.24-36,21A233.25,233.25,0,0,0,512.5,293.5Z" transform="translate(-88 85.05)"/><path class="b7cce325-6ce2-4ad9-a029-752d2cc01477" d="M477.5.5a617.06,617.06,0,0,0,62,141c17.7,29.53,44,72.73,92,117a463.15,463.15,0,0,0,83,61c-7.17-12.92-17.33-31.21-25-45-47.1-84.71-53.42-95.6-63-117-18.48-41.24-13.67-42.39-30-78a479,479,0,0,0-57-94Z" transform="translate(-88 85.05)"/><path class="b7cce325-6ce2-4ad9-a029-752d2cc01477" d="M628.5-3.5a890.87,890.87,0,0,1,57,158A892,892,0,0,1,707.84,276,900.64,900.64,0,0,1,712.5,419.5c-2.52,65.41,2.83,171.67,39,349h66c-22.72-147.85-22.28-265.84-17-349,4.63-72.86,16.31-171.3-21-292a602.8,602.8,0,0,0-38-94l-32-62Z" transform="translate(-88 85.05)"/></svg>